<svg width="24" height="24" viewBox="0 0 24 24" fill="none" xmlns="http://www.w3.org/2000/svg">
<path fill-rule="evenodd" clip-rule="evenodd" d="M11.8607 20.9995C11.601 21.0011 11.3513 20.8967 11.167 20.7095L3.57529 12.9295C1.59339 10.8799 1.59339 7.57918 3.57529 5.52953C5.57349 3.49016 8.80725 3.49016 10.8055 5.52953L11.8607 6.60953L12.9159 5.52953C14.9141 3.49016 18.1478 3.49016 20.146 5.52953V5.52953C22.1279 7.57918 22.1279 10.8799 20.146 12.9295L12.5544 20.7095C12.37 20.8967 12.1204 21.0011 11.8607 20.9995ZM7.19196 5.99954C6.35652 5.99567 5.55432 6.33418 4.96429 6.93954L4.96429 6.93954C3.73585 8.20345 3.73586 10.2456 4.96429 11.5095L11.8623 18.5795L18.7602 11.5095C19.9887 10.2456 19.9887 8.20345 18.7602 6.93954C17.51 5.7306 15.5551 5.7306 14.3049 6.93954L12.556 8.73954V8.73954C12.176 9.13167 11.5573 9.13426 11.1742 8.74534C11.1723 8.74342 11.1704 8.74149 11.1686 8.73954L9.41963 6.93954C8.82961 6.33418 8.0274 5.99567 7.19196 5.99954L7.19196 5.99954Z" fill="#212121"/>
</svg>
